HIERARCHY
ROOT Hips
{
  OFFSET -158.972 97.8964 105.273
  CHANNELS 6 Xposition Yposition Zposition Zrotation Xrotation Yrotation
  JOINT ToSpine
  {
    OFFSET -0.0105055 1.38907 -7.13956
    CHANNELS 3 Zrotation Xrotation Yrotation
    JOINT Spine
    {
      OFFSET 0.0105055 10 1
      CHANNELS 3 Zrotation Xrotation Yrotation
      JOINT Spine1
      {
        OFFSET 0 12 1.60637
        CHANNELS 3 Zrotation Xrotation Yrotation
        JOINT Neck
        {
          OFFSET 0 27 2.26658
          CHANNELS 3 Zrotation Xrotation Yrotation
          JOINT Head
          {
            OFFSET 0 9 2.12705
            CHANNELS 3 Zrotation Xrotation Yrotation
            End Site
            {
              OFFSET 0 11 2
            }
          }
        }
        JOINT LeftShoulder
        {
          OFFSET 8 19.6109 2.86452
          CHANNELS 3 Zrotation Xrotation Yrotation
          JOINT LeftArm
          {
            OFFSET 12 1 0.681055
            CHANNELS 3 Zrotation Xrotation Yrotation
            JOINT LeftForeArm
            {
              OFFSET 19 0 -1.52608
              CHANNELS 3 Zrotation Xrotation Yrotation
              JOINT LeftHand
              {
                OFFSET 23 0 0
                CHANNELS 3 Zrotation Xrotation Yrotation
                End Site
                {
                  OFFSET 10 0 0
                }
              }
            }
          }
        }
        JOINT RightShoulder
        {
          OFFSET -8 19.6109 2.86452
          CHANNELS 3 Zrotation Xrotation Yrotation
          JOINT RightArm
          {
            OFFSET -12 1 0.681055
            CHANNELS 3 Zrotation Xrotation Yrotation
            JOINT RightForeArm
            {
              OFFSET -19 0 -1.52608
              CHANNELS 3 Zrotation Xrotation Yrotation
              JOINT RightHand
              {
                OFFSET -23 0 0
                CHANNELS 3 Zrotation Xrotation Yrotation
                End Site
                {
                  OFFSET -10 0 0
                }
              }
            }
          }
        }
      }
    }
  }
  JOINT LeftUpLeg
  {
    OFFSET 9 -7.17245 0
    CHANNELS 3 Zrotation Xrotation Yrotation
    JOINT LeftLeg
    {
      OFFSET 0 -44.1113 0
      CHANNELS 3 Zrotation Xrotation Yrotation
      JOINT LeftFoot
      {
        OFFSET 0 -36.1829 0
        CHANNELS 3 Zrotation Xrotation Yrotation
        JOINT LeftToeBase
        {
          OFFSET 0 -4.84184 13
          CHANNELS 3 Zrotation Xrotation Yrotation
          End Site
          {
            OFFSET 0 1 6
          }
        }
      }
    }
  }
  JOINT RightUpLeg
  {
    OFFSET -9 -7.17245 0
    CHANNELS 3 Zrotation Xrotation Yrotation
    JOINT RightLeg
    {
      OFFSET 0 -44.0551 0
      CHANNELS 3 Zrotation Xrotation Yrotation
      JOINT RightFoot
      {
        OFFSET 0 -36.1469 0
        CHANNELS 3 Zrotation Xrotation Yrotation
        JOINT RightToeBase
        {
          OFFSET 0 -4.92256 13
          CHANNELS 3 Zrotation Xrotation Yrotation
          End Site
          {
            OFFSET 0 1 6
          }
        }
      }
    }
  }
}
MOTION
Frames:	15
Frame Time:	0.0333333
-77.8542 90.1857 15.6005 -1.66219 0.0629845 60.7854 0 0 0 2.84862 11.0692 0.538729 -0.677437 0.353845 0.79335 6.79599 28.332 9.65242 -11.5285 4.04023 16.6893 -22.7677 2.76811 -5.9964 -44.8724 25.4532 3.37863 -4.48661 -16.1662 -17.5852 -10.4278 0.0389164 -0.426471 18.5452 2.73259 7.34353 44.4555 -7.88468 -9.46156 0.552291 -0.853751 32.8726 3.16027 0.13335 4.83118 23.0772 -22.2519 31.3816 5.12764e-007 55.3143 -21.1078 4.91278 -27.6075 1.20773 0.805574 -1.68714 -3.09419 -32.6112 -15.3752 -11.1832 1.85101e-007 37.7502 3.87798 -18.5776 2.24015 0.366434 2.7709 -9.31594 -6.60344 
-76.1354 90.733 13.3992 -1.01315 0.411464 61.5931 0 0 0 1.92232 11.9272 0.353842 -1.10738 -0.010668 0.623728 6.25879 28.9905 9.59124 -10.7677 3.65765 16.175 -22.9658 2.78366 -5.98856 -42.773 24.9998 2.02221 -4.60819 -16.8595 -16.9788 -10.0726 0.0411444 -0.466871 18.6726 2.73736 7.31176 44.7673 -6.88952 -10.1355 0.419285 -0.689246 31.2965 2.40533 0.123328 5.86942 19.5834 -21.7436 29.9374 -5.8366e-007 54.8423 -20.4971 6.17121 -28.2808 1.55614 0.736125 -0.43774 -3.00786 -32.0725 -17.6287 -11.7579 -4.15704e-008 41.598 2.9516 -18.7093 -2.27081 -0.374132 2.74969 -9.23967 -6.48206 
-74.4897 91.4755 11.2964 -0.448768 0.623399 62.0096 0 0 0 1.27553 12.8848 0.044264 -1.53752 -0.19404 0.370463 5.76958 29.4216 9.72974 -10.6112 3.36358 16.0313 -22.6258 2.77683 -6.07018 -42.1792 21.4905 1.05974 -4.74216 -17.4033 -17.0753 -9.0949 0.112144 -1.40993 18.5779 2.7994 7.59389 45.5442 -5.56041 -10.7476 0.886122 -1.55601 29.6638 3.03092 0.143597 5.42371 16.1063 -20.6572 28.6629 4.14106e-007 53.2159 -19.5244 7.76136 -28.1673 1.94996 0.718065 -0.518322 -2.91705 -30.4151 -20.1127 -13.3361 8.97651e-008 44.2118 1.37072 -20.8949 -4.08661 -0.753842 3.26813 -11.6149 -7.26402 
-72.9209 92.4242 9.2743 -0.375386 0.632031 62.0279 0 0 0 0.838969 13.0821 -0.103839 -1.36065 0.452366 0.225706 5.39768 29.5749 9.9015 -10.5319 3.12343 15.9849 -22.2762 2.77246 -6.16499 -41.6789 18.8738 -0.789101 -4.97618 -18.0705 -17.3481 -8.43702 0.103996 -1.40985 18.2202 2.69721 7.33312 46.4489 -4.51049 -10.6114 0.572632 -1.11226 27.2433 3.00552 0.115979 4.41873 13.0335 -19.4181 27.5547 -1.57662e-007 50.5979 -18.211 9.50506 -27.5572 2.33594 0.655718 -0.494212 -2.65546 -27.241 -23.5505 -13.3294 -1.58534e-009 46.2503 0.396696 -23.3922 -4.63761 -0.960577 3.69476 -13.6927 -6.70416 
-71.3698 93.3534 7.48628 -0.869422 0.758053 61.9709 0 0 0 0.684749 13.3259 -0.601729 -1.48583 0.125502 -0.168368 4.92644 29.7003 10.3296 -10.3115 3.46594 16.15 -21.9981 2.76054 -6.21229 -41.2685 16.8102 -2.0409 -5.44435 -19.5414 -17.8425 -8.17043 0.123592 -1.73033 18.1578 2.7347 7.50833 47.3947 -3.01239 -11.2718 1.14748 -2.3614 25.9261 3.01462 0.124603 4.73261 10.3781 -18.5016 26.7959 -6.38707e-008 47.6371 -16.9919 11.4531 -26.6437 2.72058 0.674818 -0.928163 -2.65752 -22.9431 -27.4565 -12.1237 5.91234e-008 47.5631 0.924309 -24.4868 -5.24898 -1.13979 3.69171 -13.6725 -7.28605 
-69.6854 94.2642 5.84868 -1.34005 1.18812 61.9153 0 0 0 -0.049515 12.8926 -1.04206 -1.07666 0.230599 -0.644094 4.86926 30.4194 10.3949 -11.0134 3.55574 16.4229 -21.7763 2.79163 -6.39383 -40.8842 14.724 -3.31738 -5.0323 -18.0082 -18.6076 -8.76327 0.209155 -2.72914 17.6675 2.65584 7.39099 48.6819 -2.16144 -11.8887 1.31471 -2.89494 24.6821 3.04015 0.136607 5.14442 7.58235 -17.3139 26.4952 1.05976e-006 44.104 -16.2664 13.8111 -25.2738 3.11079 0.714691 -0.579952 -2.89189 -18.2547 -31.396 -9.84891 1.1937e-007 48.4251 2.84447 -22.9036 -5.39362 -1.09339 3.97506 -14.9889 -6.23861 
-67.8672 94.9407 4.3522 -1.69766 1.27823 62.1975 0 0 0 -0.20778 12.5658 -1.87718 -1.01117 0.473891 -1.42514 4.84897 30.6356 10.635 -11.3978 3.70434 16.786 -21.4186 2.74795 -6.357 -40.5153 12.0446 -4.07929 -5.14622 -15.8435 -20.9223 -9.55468 0.251407 -3.00751 17.3722 2.54393 7.05211 50.0324 -1.43308 -12.4792 1.16176 -2.805 23.6447 2.68213 0.100255 4.28051 5.4292 -15.7653 26.8446 3.09698e-007 40.9446 -16.4977 15.9992 -23.8195 3.3955 0.630143 -3.13096 -2.00075 -12.583 -34.2816 -7.08314 1.30994e-007 48.1781 5.48151 -24.0815 -3.34916 -0.714569 4.18262 -16.0202 -7.1064 
-66.1269 95.3814 2.89855 -2.08651 1.66633 62.7435 0 0 0 -0.727072 12.0771 -2.84166 -0.85201 0.821443 -2.38871 5.13995 30.6329 10.7552 -11.8483 3.67335 17.1845 -20.9524 2.79672 -6.69088 -40.1463 8.48699 -4.8165 -5.01374 -12.7405 -23.2304 -9.89906 0.326965 -3.77417 17.188 2.42622 6.63749 51.4282 -1.35003 -12.9681 1.27089 -3.42592 22.4113 2.58726 0.0976071 4.3203 3.47607 -14.494 27.9759 -4.45025e-007 38.3197 -18.2453 17.0858 -23.055 3.50965 0.636626 -2.37436 -2.19876 -7.10608 -36.8378 -3.97158 1.31672e-007 47.6017 7.60638 -21.7535 -2.68031 -0.51511 4.10959 -15.7568 -8.11996 
-64.3472 95.5248 1.50058 -2.41843 1.97365 63.6014 0 0 0 -1.31643 11.6966 -3.87271 -0.263999 1.00935 -3.54265 5.2229 30.6817 10.897 -12.2145 3.3991 17.4545 -20.5777 2.82982 -6.94428 -39.7025 5.75275 -5.81589 -4.71622 -10.1526 -25.2166 -10.1203 0.340497 -3.84398 16.9467 2.30048 6.20434 52.7819 -0.907601 -13.889 2.04094 -5.50803 21.7484 1.99049 0.0691317 3.97788 1.89746 -13.3653 29.6324 -8.74001e-007 36.5935 -20.6752 18.9362 -22.5569 3.80977 0.611106 -2.28401 -2.10201 -1.62189 -38.3916 -1.32655 -4.00398e-007 46.0545 9.32552 -20.6093 -3.17549 -0.577492 3.58457 -13.0534 -9.90302 
-62.4691 95.4573 0.0580159 -2.30576 2.50246 65.2935 0 0 0 -2.10915 11.2555 -5.06569 0.411811 1.70527 -4.96023 5.52731 30.5035 10.8942 -12.6169 3.54147 17.7175 -20.3094 2.88337 -7.24023 -39.1444 4.5498 -7.41373 -4.01498 -7.80702 -27.3263 -9.60007 0.284802 -3.39061 16.8523 2.12931 5.51796 53.5799 -1.40586 -14.9566 2.11755 -5.97502 21.0619 2.4943 0.0900832 4.1361 -0.454081 -11.6542 30.5365 -0.116773 34.6146 -23.676 20.7586 -21.8879 4.0568 0.141924 -2.20083 0.00522855 2.23351 -38.8962 -1.51891 4.56181e-008 43.5944 8.71678 -20.3358 -2.15422 -0.386403 3.78611 -14.1376 -8.06137 
-60.5294 95.1877 -1.36948 -2.13923 3.37829 67.1479 0 0 0 -3.18853 11.1428 -6.24652 1.05877 1.76481 -6.31891 5.47547 30.3595 10.9824 -12.7348 3.90992 17.8276 -20.1068 2.90394 -7.39312 -38.5298 3.426 -9.59517 -3.53457 -6.5256 -28.5245 -10.2567 0.300088 -3.34278 16.876 1.94362 4.72632 54.0442 -1.66498 -16.378 2.95221 -8.26933 20.6741 2.67975 0.0938737 4.01186 -2.85122 -10.5064 30.1165 -0.858143 33.762 -24.2613 22.5548 -22.3601 4.51394 0.810859 -0.290313 -3.34919 4.57666 -38.5979 -4.87355 -3.11401e-008 39.9497 8.67926 -18.189 -0.548643 -0.0878252 4.07563 -15.5568 -7.72449 
-58.3926 94.4617 -2.79365 -1.96039 4.19402 68.9811 0 0 0 -4.43889 10.658 -6.9337 2.17532 2.20494 -7.27 5.89572 30.4765 10.3925 -13.1058 4.1977 17.5722 -20.1723 2.97485 -7.63216 -37.8612 3.38054 -13.1856 -3.65444 -6.77415 -28.4339 -10.4524 0.310737 -3.39623 16.4389 1.76522 4.10244 54.9079 -3.36588 -17.7277 2.95935 -8.86302 19.7691 3.09553 0.110787 4.09843 -4.98197 -9.43056 31.2003 -0.670839 34.1166 -26.6583 24.8291 -22.6622 5.05145 0.973689 -1.85164 -3.8182 6.77371 -37.7569 -10.3995 -2.42219e-008 36.2045 10.4788 -18.661 1.92558 0.316408 4.55068 -18.9999 -12.6082 
-56.2337 93.7658 -4.19219 -1.79502 4.53794 70.3878 0 0 0 -4.82675 10.1006 -7.5449 2.62481 2.90624 -8.0372 6.21911 30.785 10.0073 -12.8529 4.14125 17.3063 -20.0755 2.99836 -7.75762 -37.1814 3.31411 -16.3978 -2.96332 -5.35967 -28.9949 -10.399 0.31458 -3.45593 16.2858 1.6694 3.73447 55.7922 -3.87327 -18.8541 3.08843 -9.73589 18.8331 2.49673 0.076092 3.49074 -6.4185 -8.10677 33.2964 -0.0467842 34.7674 -30.0428 26.3793 -23.6978 5.62978 0.949473 -2.16193 -3.66132 8.98918 -36.4185 -14.9305 -1.58445e-007 31.247 8.87336 -14.0997 2.14936 0.265838 4.97522 -19.9205 -7.73362 
-53.7537 92.7103 -5.62074 -1.64918 4.98802 71.6315 0 0 0 -5.35964 9.25463 -7.94117 2.95247 3.45903 -8.48019 7.41503 30.9915 8.96076 -13.3899 4.33252 17.0534 -19.8294 3.07735 -8.15265 -36.5727 3.82753 -19.6912 -2.77134 -4.9796 -29.1473 -10.3108 0.306932 -3.40098 16.3069 1.5812 3.34721 56.7153 -4.08106 -19.712 2.79508 -9.57796 17.3608 2.63041 0.0866466 3.77266 -7.94959 -6.76293 34.2451 9.84222e-007 36.0024 -32.4555 27.9854 -25.5256 6.46126 1.22486 -1.07829 -5.02509 10.8648 -34.7409 -19.382 1.36324e-008 27.2014 9.86761 -12.5958 0.626562 0.0691504 4.62562 -18.1281 -7.1746 
-51.5083 91.8245 -7.15478 -1.94929 5.51332 73.3058 0 0 0 -6.17922 8.65215 -8.39755 4.15671 3.62355 -9.28263 7.69289 31.1768 8.66173 -13.5037 4.51653 16.9599 -20.1998 3.16641 -8.33328 -35.0193 5.29204 -23.0358 -2.83883 -5.1497 -28.9187 -10.2359 0.154844 -1.72874 16.0141 1.5032 3.08666 57.595 -4.02835 -20.197 2.80818 -9.95219 16.4081 2.75815 0.0905873 3.76151 -9.98468 -5.74611 33.3529 -1.51522e-006 36.2341 -32.9543 26.2367 -28.0756 6.66947 1.74984 1.95281 -7.3664 11.7499 -34.286 -20.4872 0.79118 24.5586 8.96118 -10.7 0.754801 0.0706865 4.26321 -16.527 -8.16637 
